<mxfile modified="2021-07-17T13:19:08.264Z" host="app.diagrams.net" agent="5.0 (Windows NT 10.0; Win64; x64) AppleWebKit/537.36 (KHTML, like Gecko) Chrome/92.0.4495.0 Safari/537.36" etag="nJbcuN1DQslH0ha8ycwg" version="14.9.0" type="github">
  <diagram id="f106602c-feb2-e66a-4537-3a34d633f6aa" name="Page-1">
    <mxGraphModel dx="942" dy="589" grid="1" gridSize="10" guides="1" tooltips="1" connect="1" arrows="1" fold="1" page="1" pageScale="1" pageWidth="1169" pageHeight="827" background="none" math="0" shadow="0">
      <root>
        <mxCell id="0" />
        <mxCell id="1" parent="0" />
        <mxCell id="RW9aAQlklyTTAiJw04A8-1003" value="Database/Queue" style="points=[[0,0,0],[0.25,0,0],[0.5,0,0],[0.75,0,0],[1,0,0],[1,0.25,0],[1,0.5,0],[1,0.75,0],[1,1,0],[0.75,1,0],[0.5,1,0],[0.25,1,0],[0,1,0],[0,0.75,0],[0,0.5,0],[0,0.25,0]];rounded=1;absoluteArcSize=1;arcSize=2;html=1;strokeColor=none;gradientColor=none;shadow=0;dashed=0;fontSize=12;fontColor=#9E9E9E;align=left;verticalAlign=top;spacing=10;spacingTop=-4;fillColor=#FFF8E1;glass=0;sketch=0;" parent="1" vertex="1">
          <mxGeometry x="822.46" y="360" width="120" height="400" as="geometry" />
        </mxCell>
        <mxCell id="EeV_75KZKK65QxAyRyUk-1010" value="" style="points=[[0,0,0],[0.25,0,0],[0.5,0,0],[0.75,0,0],[1,0,0],[1,0.25,0],[1,0.5,0],[1,0.75,0],[1,1,0],[0.75,1,0],[0.5,1,0],[0.25,1,0],[0,1,0],[0,0.75,0],[0,0.5,0],[0,0.25,0]];rounded=1;absoluteArcSize=1;arcSize=2;html=1;strokeColor=none;gradientColor=none;shadow=0;dashed=0;fontSize=12;fontColor=#9E9E9E;align=left;verticalAlign=top;spacing=10;spacingTop=-4;fillColor=#F3E5F5;" parent="1" vertex="1">
          <mxGeometry x="147.5" y="220" width="660" height="730" as="geometry" />
        </mxCell>
        <mxCell id="EeV_75KZKK65QxAyRyUk-1042" value="" style="edgeStyle=orthogonalEdgeStyle;rounded=0;orthogonalLoop=1;jettySize=auto;html=1;" parent="1" source="14" target="EeV_75KZKK65QxAyRyUk-1041" edge="1">
          <mxGeometry relative="1" as="geometry" />
        </mxCell>
        <mxCell id="14" value="&lt;font style=&quot;font-size: 12px&quot;&gt;K8S External&lt;/font&gt;" style="fillColor=#F6F6F6;strokeColor=none;shadow=1;gradientColor=none;fontSize=14;align=left;spacing=10;fontColor=#717171;9E9E9E;verticalAlign=top;spacingTop=-4;fontStyle=0;spacingLeft=40;html=1;" parent="1" vertex="1">
          <mxGeometry x="280" y="366" width="390" height="174" as="geometry" />
        </mxCell>
        <mxCell id="EeV_75KZKK65QxAyRyUk-1005" value="" style="html=1;fillColor=#5184F3;strokeColor=none;verticalAlign=top;labelPosition=center;verticalLabelPosition=bottom;align=center;spacingTop=-6;fontSize=11;fontStyle=1;fontColor=#999999;shape=mxgraph.gcp2.hexIcon;prIcon=container_engine;rounded=1;" parent="14" vertex="1">
          <mxGeometry width="48.75" height="54.37499999999999" as="geometry" />
        </mxCell>
        <mxCell id="EeV_75KZKK65QxAyRyUk-1023" value="&lt;h3&gt;&lt;b&gt;&lt;font face=&quot;Times New Roman&quot;&gt;BIZ FE&lt;/font&gt;&lt;/b&gt;&lt;/h3&gt;" style="points=[[0,0,0],[0.25,0,0],[0.5,0,0],[0.75,0,0],[1,0,0],[1,0.25,0],[1,0.5,0],[1,0.75,0],[1,1,0],[0.75,1,0],[0.5,1,0],[0.25,1,0],[0,1,0],[0,0.75,0],[0,0.5,0],[0,0.25,0]];rounded=1;absoluteArcSize=1;arcSize=2;html=1;strokeColor=none;gradientColor=none;shadow=1;dashed=0;fontSize=12;fontColor=#9E9E9E;align=left;verticalAlign=top;spacing=10;spacingTop=-4;" parent="14" vertex="1">
          <mxGeometry x="107.5" y="22.564375" width="175" height="61.715624999999996" as="geometry" />
        </mxCell>
        <mxCell id="EeV_75KZKK65QxAyRyUk-1024" value="" style="html=1;fillColor=#5184F3;strokeColor=none;verticalAlign=top;labelPosition=center;verticalLabelPosition=bottom;align=center;spacingTop=-6;fontSize=11;fontStyle=1;fontColor=#999999;shape=mxgraph.gcp2.hexIcon;prIcon=app_engine;rounded=1;shadow=1;" parent="14" vertex="1">
          <mxGeometry x="162" y="20.662499999999998" width="66" height="63.61874999999999" as="geometry" />
        </mxCell>
        <mxCell id="EeV_75KZKK65QxAyRyUk-1030" value="&lt;h4&gt;&lt;font face=&quot;Times New Roman&quot; style=&quot;font-size: 15px&quot;&gt;BIZ APIs&lt;/font&gt;&lt;/h4&gt;" style="points=[[0,0,0],[0.25,0,0],[0.5,0,0],[0.75,0,0],[1,0,0],[1,0.25,0],[1,0.5,0],[1,0.75,0],[1,1,0],[0.75,1,0],[0.5,1,0],[0.25,1,0],[0,1,0],[0,0.75,0],[0,0.5,0],[0,0.25,0]];rounded=1;absoluteArcSize=1;arcSize=2;html=1;strokeColor=none;gradientColor=none;shadow=0;dashed=0;fontSize=12;fontColor=#9E9E9E;align=left;verticalAlign=top;spacing=10;spacingTop=-4;" parent="14" vertex="1">
          <mxGeometry x="105.75" y="108.74999999999999" width="178.5" height="54.37499999999999" as="geometry" />
        </mxCell>
        <mxCell id="EeV_75KZKK65QxAyRyUk-1031" value="" style="html=1;fillColor=#5184F3;strokeColor=none;verticalAlign=top;labelPosition=center;verticalLabelPosition=bottom;align=center;spacingTop=-6;fontSize=11;fontStyle=1;fontColor=#999999;shape=mxgraph.gcp2.hexIcon;prIcon=app_engine;rounded=1;shadow=1;" parent="14" vertex="1">
          <mxGeometry x="205" y="104.128125" width="66" height="63.61874999999999" as="geometry" />
        </mxCell>
        <mxCell id="RW9aAQlklyTTAiJw04A8-1000" value="" style="endArrow=classic;html=1;entryX=0.5;entryY=0;entryDx=0;entryDy=0;entryPerimeter=0;" parent="14" target="EeV_75KZKK65QxAyRyUk-1030" edge="1">
          <mxGeometry width="50" height="50" relative="1" as="geometry">
            <mxPoint x="195" y="84.28125" as="sourcePoint" />
            <mxPoint x="245" y="29.906249999999996" as="targetPoint" />
          </mxGeometry>
        </mxCell>
        <mxCell id="818" value="Architecture: Business Integration" style="fillColor=#4DA1F5;strokeColor=none;shadow=1;gradientColor=none;fontSize=14;align=left;spacingLeft=50;fontColor=#ffffff;html=1;" parent="1" vertex="1">
          <mxGeometry x="180" y="10" width="650" height="40" as="geometry" />
        </mxCell>
        <mxCell id="EeV_75KZKK65QxAyRyUk-1012" value="" style="edgeStyle=orthogonalEdgeStyle;rounded=0;orthogonalLoop=1;jettySize=auto;html=1;" parent="1" source="997" target="EeV_75KZKK65QxAyRyUk-1011" edge="1">
          <mxGeometry relative="1" as="geometry" />
        </mxCell>
        <mxCell id="997" value="End User&lt;br&gt;API Requests" style="rounded=1;absoluteArcSize=1;arcSize=2;html=1;strokeColor=none;gradientColor=none;shadow=0;dashed=0;fontSize=12;fontColor=#9E9E9E;align=left;verticalAlign=top;spacing=10;spacingTop=-4;fillColor=#F1F8E9;direction=south;" parent="1" vertex="1">
          <mxGeometry x="355" y="60" width="230" height="90" as="geometry" />
        </mxCell>
        <mxCell id="987" value="" style="strokeColor=#dddddd;fillColor=#ffffff;shadow=1;strokeWidth=1;rounded=1;absoluteArcSize=1;arcSize=2;labelPosition=center;verticalLabelPosition=middle;align=center;verticalAlign=bottom;spacingLeft=0;fontColor=#999999;fontSize=12;whiteSpace=wrap;spacingBottom=2;html=1;" parent="1" vertex="1">
          <mxGeometry x="445" y="70" width="65" height="50" as="geometry" />
        </mxCell>
        <mxCell id="988" value="" style="dashed=0;connectable=0;html=1;fillColor=#757575;strokeColor=none;shape=mxgraph.gcp2.laptop;part=1;" parent="987" vertex="1">
          <mxGeometry x="0.5" width="50" height="33" relative="1" as="geometry">
            <mxPoint x="-25" y="18.5" as="offset" />
          </mxGeometry>
        </mxCell>
        <mxCell id="EeV_75KZKK65QxAyRyUk-1017" value="" style="edgeStyle=orthogonalEdgeStyle;rounded=0;orthogonalLoop=1;jettySize=auto;html=1;" parent="1" source="EeV_75KZKK65QxAyRyUk-1011" target="EeV_75KZKK65QxAyRyUk-1016" edge="1">
          <mxGeometry relative="1" as="geometry" />
        </mxCell>
        <mxCell id="EeV_75KZKK65QxAyRyUk-1011" value="" style="aspect=fixed;pointerEvents=1;shadow=0;dashed=0;html=1;strokeColor=none;labelPosition=center;verticalLabelPosition=bottom;verticalAlign=top;align=center;fillColor=#00188D;shape=mxgraph.mscae.enterprise.firewall;rounded=1;" parent="1" vertex="1">
          <mxGeometry x="441.59" y="190" width="56.82" height="50" as="geometry" />
        </mxCell>
        <mxCell id="EeV_75KZKK65QxAyRyUk-1013" value="Firewall (F5)" style="text;html=1;strokeColor=none;fillColor=none;align=center;verticalAlign=middle;whiteSpace=wrap;rounded=0;shadow=1;" parent="1" vertex="1">
          <mxGeometry x="415" y="250" width="110" height="10" as="geometry" />
        </mxCell>
        <mxCell id="EeV_75KZKK65QxAyRyUk-1029" value="" style="edgeStyle=orthogonalEdgeStyle;rounded=0;orthogonalLoop=1;jettySize=auto;html=1;" parent="1" source="EeV_75KZKK65QxAyRyUk-1016" target="EeV_75KZKK65QxAyRyUk-1024" edge="1">
          <mxGeometry relative="1" as="geometry" />
        </mxCell>
        <mxCell id="EeV_75KZKK65QxAyRyUk-1016" value="" style="outlineConnect=0;dashed=0;verticalLabelPosition=bottom;verticalAlign=top;align=center;html=1;shape=mxgraph.aws3.customer_gateway;fillColor=#F58534;gradientColor=none;rounded=1;shadow=1;" parent="1" vertex="1">
          <mxGeometry x="439.45" y="270" width="61.09" height="60" as="geometry" />
        </mxCell>
        <mxCell id="EeV_75KZKK65QxAyRyUk-1018" style="edgeStyle=orthogonalEdgeStyle;rounded=0;orthogonalLoop=1;jettySize=auto;html=1;exitX=0.5;exitY=1;exitDx=0;exitDy=0;" parent="1" source="14" target="14" edge="1">
          <mxGeometry relative="1" as="geometry" />
        </mxCell>
        <mxCell id="EeV_75KZKK65QxAyRyUk-1036" value="" style="aspect=fixed;html=1;points=[];align=center;image;fontSize=12;image=img/lib/mscae/Cache_Redis_Product.svg;rounded=1;shadow=1;" parent="1" vertex="1">
          <mxGeometry x="850.64" y="690" width="71.43" height="60" as="geometry" />
        </mxCell>
        <mxCell id="EeV_75KZKK65QxAyRyUk-1040" value="External Gateway" style="text;html=1;strokeColor=none;fillColor=none;align=center;verticalAlign=middle;whiteSpace=wrap;rounded=0;shadow=1;" parent="1" vertex="1">
          <mxGeometry x="510" y="285" width="90" height="30" as="geometry" />
        </mxCell>
        <mxCell id="EeV_75KZKK65QxAyRyUk-1053" value="" style="edgeStyle=orthogonalEdgeStyle;rounded=0;orthogonalLoop=1;jettySize=auto;html=1;" parent="1" source="EeV_75KZKK65QxAyRyUk-1041" target="EeV_75KZKK65QxAyRyUk-1052" edge="1">
          <mxGeometry relative="1" as="geometry" />
        </mxCell>
        <mxCell id="EeV_75KZKK65QxAyRyUk-1041" value="" style="outlineConnect=0;dashed=0;verticalLabelPosition=bottom;verticalAlign=top;align=center;html=1;shape=mxgraph.aws3.customer_gateway;fillColor=#F58536;gradientColor=none;rounded=1;shadow=1;" parent="1" vertex="1">
          <mxGeometry x="442.75" y="580" width="64.5" height="70" as="geometry" />
        </mxCell>
        <mxCell id="EeV_75KZKK65QxAyRyUk-1043" value="Internal Gateway" style="text;html=1;strokeColor=none;fillColor=none;align=center;verticalAlign=middle;whiteSpace=wrap;rounded=0;shadow=1;" parent="1" vertex="1">
          <mxGeometry x="520" y="586" width="60" height="20" as="geometry" />
        </mxCell>
        <mxCell id="EeV_75KZKK65QxAyRyUk-1052" value="" style="points=[[0,0,0],[0.25,0,0],[0.5,0,0],[0.75,0,0],[1,0,0],[1,0.25,0],[1,0.5,0],[1,0.75,0],[1,1,0],[0.75,1,0],[0.5,1,0],[0.25,1,0],[0,1,0],[0,0.75,0],[0,0.5,0],[0,0.25,0]];rounded=0;absoluteArcSize=1;arcSize=2;html=1;strokeColor=none;gradientColor=none;shadow=1;dashed=0;fontSize=12;fontColor=#9E9E9E;align=left;verticalAlign=top;spacing=10;spacingTop=-4;fillColor=#F1F8E9;sketch=0;glass=0;" parent="1" vertex="1">
          <mxGeometry x="190" y="700" width="570" height="180" as="geometry" />
        </mxCell>
        <mxCell id="EeV_75KZKK65QxAyRyUk-1054" value="K8S Internal" style="html=1;fillColor=#5184F3;strokeColor=none;verticalAlign=top;labelPosition=center;verticalLabelPosition=bottom;align=center;spacingTop=-6;fontSize=11;fontStyle=1;fontColor=#999999;shape=mxgraph.gcp2.hexIcon;prIcon=container_engine;rounded=0;shadow=1;glass=0;sketch=0;" parent="1" vertex="1">
          <mxGeometry x="190" y="700" width="66" height="58.5" as="geometry" />
        </mxCell>
        <mxCell id="EeV_75KZKK65QxAyRyUk-1055" value="&lt;h4&gt;Authorization&lt;br&gt;&amp;nbsp; &amp;nbsp;Services&lt;/h4&gt;" style="points=[[0,0,0],[0.25,0,0],[0.5,0,0],[0.75,0,0],[1,0,0],[1,0.25,0],[1,0.5,0],[1,0.75,0],[1,1,0],[0.75,1,0],[0.5,1,0],[0.25,1,0],[0,1,0],[0,0.75,0],[0,0.5,0],[0,0.25,0]];rounded=1;absoluteArcSize=1;arcSize=2;html=1;strokeColor=none;gradientColor=none;shadow=0;dashed=0;fontSize=12;fontColor=#9E9E9E;align=left;verticalAlign=top;spacing=10;spacingTop=-4;glass=0;sketch=0;" parent="1" vertex="1">
          <mxGeometry x="209" y="810" width="135" height="60" as="geometry" />
        </mxCell>
        <mxCell id="EeV_75KZKK65QxAyRyUk-1056" value="" style="html=1;fillColor=#5184F3;strokeColor=none;verticalAlign=top;labelPosition=center;verticalLabelPosition=bottom;align=center;spacingTop=-6;fontSize=11;fontStyle=1;fontColor=#999999;shape=mxgraph.gcp2.hexIcon;prIcon=app_engine;rounded=0;shadow=1;glass=0;sketch=0;" parent="1" vertex="1">
          <mxGeometry x="289" y="811.5" width="66" height="58.5" as="geometry" />
        </mxCell>
        <mxCell id="EeV_75KZKK65QxAyRyUk-1063" value="" style="edgeStyle=orthogonalEdgeStyle;rounded=0;orthogonalLoop=1;jettySize=auto;html=1;entryX=0.5;entryY=0;entryDx=0;entryDy=0;entryPerimeter=0;" parent="1" source="EeV_75KZKK65QxAyRyUk-1057" target="EeV_75KZKK65QxAyRyUk-1055" edge="1">
          <mxGeometry relative="1" as="geometry" />
        </mxCell>
        <mxCell id="EeV_75KZKK65QxAyRyUk-1065" value="" style="edgeStyle=orthogonalEdgeStyle;rounded=0;orthogonalLoop=1;jettySize=auto;html=1;" parent="1" source="EeV_75KZKK65QxAyRyUk-1057" edge="1">
          <mxGeometry relative="1" as="geometry">
            <mxPoint x="618" y="810" as="targetPoint" />
          </mxGeometry>
        </mxCell>
        <mxCell id="RW9aAQlklyTTAiJw04A8-1010" value="" style="edgeStyle=orthogonalEdgeStyle;rounded=0;orthogonalLoop=1;jettySize=auto;html=1;" parent="1" source="EeV_75KZKK65QxAyRyUk-1057" target="RW9aAQlklyTTAiJw04A8-1003" edge="1">
          <mxGeometry relative="1" as="geometry">
            <mxPoint x="470" y="870" as="targetPoint" />
          </mxGeometry>
        </mxCell>
        <mxCell id="EeV_75KZKK65QxAyRyUk-1057" value="&lt;h5 style=&quot;font-size: 13px&quot;&gt;BIZ APIs&lt;/h5&gt;" style="points=[[0,0,0],[0.25,0,0],[0.5,0,0],[0.75,0,0],[1,0,0],[1,0.25,0],[1,0.5,0],[1,0.75,0],[1,1,0],[0.75,1,0],[0.5,1,0],[0.25,1,0],[0,1,0],[0,0.75,0],[0,0.5,0],[0,0.25,0]];rounded=1;absoluteArcSize=1;arcSize=2;html=1;strokeColor=none;gradientColor=none;shadow=0;dashed=0;fontSize=12;fontColor=#9E9E9E;align=left;verticalAlign=top;spacing=10;spacingTop=-4;glass=0;sketch=0;" parent="1" vertex="1">
          <mxGeometry x="402.5" y="740" width="135" height="60" as="geometry" />
        </mxCell>
        <mxCell id="EeV_75KZKK65QxAyRyUk-1058" value="" style="html=1;fillColor=#5184F3;strokeColor=none;verticalAlign=top;labelPosition=center;verticalLabelPosition=bottom;align=center;spacingTop=-6;fontSize=11;fontStyle=1;fontColor=#999999;shape=mxgraph.gcp2.hexIcon;prIcon=app_engine;rounded=0;shadow=1;glass=0;sketch=0;" parent="1" vertex="1">
          <mxGeometry x="472.5" y="741.5" width="65" height="58.5" as="geometry" />
        </mxCell>
        <mxCell id="EeV_75KZKK65QxAyRyUk-1059" value="&lt;h5 style=&quot;font-size: 13px&quot;&gt;AAG Service&lt;/h5&gt;" style="points=[[0,0,0],[0.25,0,0],[0.5,0,0],[0.75,0,0],[1,0,0],[1,0.25,0],[1,0.5,0],[1,0.75,0],[1,1,0],[0.75,1,0],[0.5,1,0],[0.25,1,0],[0,1,0],[0,0.75,0],[0,0.5,0],[0,0.25,0]];rounded=1;absoluteArcSize=1;arcSize=2;html=1;strokeColor=none;gradientColor=none;shadow=0;dashed=0;fontSize=12;fontColor=#9E9E9E;align=left;verticalAlign=top;spacing=10;spacingTop=-4;glass=0;sketch=0;" parent="1" vertex="1">
          <mxGeometry x="600" y="810" width="150" height="60" as="geometry" />
        </mxCell>
        <mxCell id="EeV_75KZKK65QxAyRyUk-1061" value="" style="html=1;fillColor=#5184F3;strokeColor=none;verticalAlign=top;labelPosition=center;verticalLabelPosition=bottom;align=center;spacingTop=-6;fontSize=11;fontStyle=1;fontColor=#999999;shape=mxgraph.gcp2.hexIcon;prIcon=app_engine;rounded=0;shadow=1;glass=0;sketch=0;" parent="1" vertex="1">
          <mxGeometry x="684" y="810.75" width="66" height="58.5" as="geometry" />
        </mxCell>
        <mxCell id="RW9aAQlklyTTAiJw04A8-1001" value="" style="outlineConnect=0;dashed=0;verticalLabelPosition=bottom;verticalAlign=top;align=center;html=1;shape=mxgraph.aws3.queue;fillColor=#D9A741;gradientColor=none;rounded=0;shadow=1;glass=0;sketch=0;" parent="1" vertex="1">
          <mxGeometry x="844.68" y="400" width="73.5" height="48" as="geometry" />
        </mxCell>
        <mxCell id="RW9aAQlklyTTAiJw04A8-1002" value="Rabbit MQ" style="text;html=1;strokeColor=none;fillColor=none;align=center;verticalAlign=middle;whiteSpace=wrap;rounded=0;shadow=1;glass=0;sketch=0;" parent="1" vertex="1">
          <mxGeometry x="835.6" y="460" width="93.73" height="20" as="geometry" />
        </mxCell>
        <mxCell id="RW9aAQlklyTTAiJw04A8-1004" value="" style="outlineConnect=0;dashed=0;verticalLabelPosition=bottom;verticalAlign=top;align=center;html=1;shape=mxgraph.aws3.postgre_sql_instance;fillColor=#2E73B8;gradientColor=none;rounded=0;shadow=1;glass=0;sketch=0;" parent="1" vertex="1">
          <mxGeometry x="851.67" y="586" width="67.54" height="80" as="geometry" />
        </mxCell>
        <mxCell id="RW9aAQlklyTTAiJw04A8-1005" value="" style="outlineConnect=0;dashed=0;verticalLabelPosition=bottom;verticalAlign=top;align=center;html=1;shape=mxgraph.aws3.queue;fillColor=#D9A741;gradientColor=none;rounded=0;shadow=1;glass=0;sketch=0;" parent="1" vertex="1">
          <mxGeometry x="845.71" y="492" width="73.5" height="48" as="geometry" />
        </mxCell>
        <mxCell id="RW9aAQlklyTTAiJw04A8-1006" value="Active MQ" style="text;html=1;strokeColor=none;fillColor=none;align=center;verticalAlign=middle;whiteSpace=wrap;rounded=0;shadow=1;glass=0;sketch=0;" parent="1" vertex="1">
          <mxGeometry x="834.5600000000001" y="550" width="93.73" height="20" as="geometry" />
        </mxCell>
        <mxCell id="RW9aAQlklyTTAiJw04A8-1008" value="" style="edgeStyle=orthogonalEdgeStyle;rounded=0;orthogonalLoop=1;jettySize=auto;html=1;entryX=0;entryY=0.35;entryDx=0;entryDy=0;entryPerimeter=0;" parent="1" source="EeV_75KZKK65QxAyRyUk-1030" target="RW9aAQlklyTTAiJw04A8-1003" edge="1">
          <mxGeometry relative="1" as="geometry">
            <mxPoint x="644.25" y="501.9375" as="targetPoint" />
          </mxGeometry>
        </mxCell>
      </root>
    </mxGraphModel>
  </diagram>
</mxfile>
